<svg version="1.1" id="Layer_1" xmlns="http://www.w3.org/2000/svg" xmlns:xlink="http://www.w3.org/1999/xlink" x="0px" y="0px"
	 width="100%" viewBox="0 0 512 512" enable-background="new 0 0 512 512" xml:space="preserve">
<path fill="#000000" opacity="1.000000" stroke="none" 
	d="
M513.000000,299.531342 
	C509.600220,311.226440 501.852112,319.336792 493.758057,327.297089 
	C480.094391,340.734985 466.638885,354.384308 453.067505,367.916260 
	C441.886261,379.065063 434.649719,391.788391 436.298004,408.298920 
	C436.725891,412.585236 435.206055,417.673523 437.044739,421.052765 
	C439.188324,424.992401 444.949890,422.548523 449.067841,423.361359 
	C462.241760,425.961670 469.333160,433.654724 469.345032,446.920563 
	C469.359955,463.585968 469.247284,480.252350 469.413666,496.916077 
	C469.453644,500.917511 468.374969,502.751678 464.093475,502.432129 
	C460.115906,502.135193 456.074158,502.088318 452.105408,502.438477 
	C447.195953,502.871582 445.401337,501.335358 445.530029,496.105591 
	C445.882446,481.782043 445.458130,467.440033 445.757782,453.114075 
	C445.857269,448.357147 444.217438,447.262848 439.747498,447.275391 
	C392.084839,447.409180 344.421509,447.393799 296.758698,447.281342 
	C292.711884,447.271820 291.201691,448.381531 291.266113,452.627289 
	C291.486084,467.122833 291.118744,481.629333 291.468140,496.119781 
	C291.594391,501.356323 289.785950,502.861298 284.882751,502.450684 
	C280.579163,502.090271 276.221039,502.276245 271.890656,502.378052 
	C269.036224,502.445160 267.617188,501.509491 267.630280,498.391479 
	C267.708527,479.726654 267.490021,461.058685 267.758911,442.397400 
	C267.882050,433.851868 276.477875,425.068268 285.285492,423.735138 
	C290.037354,423.015869 294.807190,422.576721 299.657623,422.591583 
	C334.154694,422.697418 368.652252,422.648651 403.149658,422.647156 
	C411.648926,422.646790 411.700653,422.643127 411.637634,413.896851 
	C411.556030,402.574280 411.914886,391.342560 415.747803,380.479065 
	C418.956573,371.384766 424.012787,363.441162 430.414764,356.365265 
	C447.184906,337.829773 465.431427,320.739716 483.069336,303.055725 
	C487.587158,298.526123 489.776733,293.696289 489.754425,287.159241 
	C489.571289,233.497253 489.654663,179.834351 489.639374,126.171715 
	C489.638702,123.867462 489.895233,121.555267 488.646423,119.356903 
	C486.205780,115.060440 481.825592,112.580803 478.023743,113.568146 
	C472.747040,114.938507 469.407898,119.147217 469.381805,124.958466 
	C469.306915,141.623550 469.353363,158.289169 469.349670,174.954575 
	C469.349335,176.454361 469.414429,177.960175 469.306763,179.452911 
	C468.824280,186.140610 463.690674,191.212616 457.432495,191.245712 
	C450.832306,191.280609 445.711914,186.093414 445.684235,178.984879 
	C445.607635,159.320007 445.546997,139.653809 445.693359,119.989716 
	C445.804138,105.104401 460.358246,90.612434 475.539917,89.615509 
	C485.435486,88.965698 494.329498,91.270149 502.127716,97.449463 
	C507.370422,101.603813 510.104065,107.451927 512.830688,113.699554 
	C513.000000,175.687561 513.000000,237.375122 513.000000,299.531342 
z"/>
<path fill="#000000" opacity="1.000000" stroke="none" 
	d="
M1.000000,112.468658 
	C3.206356,108.770050 5.342380,105.489311 7.631637,102.319229 
	C16.092276,90.603210 32.309494,86.683640 46.525593,91.582077 
	C59.481113,96.046165 68.330025,108.334518 68.339302,122.352158 
	C68.351547,140.849792 68.238884,159.348206 68.381088,177.844742 
	C68.457947,187.842865 62.696686,190.833710 56.276226,191.131332 
	C49.434280,191.448486 44.709282,185.748535 44.682362,177.723755 
	C44.624218,160.392822 44.633335,143.061508 44.678368,125.730530 
	C44.688442,121.854118 43.740952,118.324554 40.569294,116.026962 
	C37.750816,113.985214 34.537350,112.160797 30.849075,114.130730 
	C26.947472,116.214600 24.326038,119.201469 24.344320,123.956596 
	C24.375715,132.122070 24.336632,140.287781 24.337122,148.453400 
	C24.339907,194.947449 24.410244,241.441696 24.268015,287.935303 
	C24.250381,293.699493 26.044054,298.054626 30.142088,302.078735 
	C45.835262,317.488739 61.493397,332.943146 76.807915,348.727081 
	C87.996170,360.258270 97.567490,372.930481 100.699783,389.327057 
	C102.457893,398.530121 102.620247,407.822601 102.259361,417.108429 
	C102.085342,421.586182 103.636848,422.880188 107.974045,422.751709 
	C113.330536,422.593018 118.845840,423.166168 122.066971,428.384552 
	C127.768158,437.620728 121.990204,447.134003 110.485207,447.315521 
	C98.489777,447.504730 86.484085,447.550385 74.492935,447.253326 
	C69.727943,447.135315 68.142899,448.536652 68.243118,453.423187 
	C68.536919,467.748566 68.202141,482.086121 68.418732,496.414246 
	C68.485336,500.820526 67.391090,502.856140 62.600456,502.453156 
	C58.132378,502.077271 53.605434,502.266663 49.109936,502.397522 
	C46.004112,502.487915 44.602341,501.430603 44.621315,498.103241 
	C44.724888,479.939545 44.461617,461.771301 44.769547,443.612152 
	C44.938240,433.664276 53.901382,424.721954 63.771542,423.611877 
	C65.576187,423.408936 67.346260,422.880249 69.151955,422.708099 
	C77.651230,421.897858 77.363434,421.911804 77.721672,413.009918 
	C78.218536,400.663177 77.601715,388.715485 69.753502,378.326752 
	C67.551239,375.411591 65.452805,372.443604 62.840561,369.846283 
	C48.187046,355.276855 33.691708,340.546722 18.927340,326.091064 
	C11.374272,318.695923 4.676764,310.851349 1.144598,300.318787 
	C1.000000,237.645767 1.000000,175.291550 1.000000,112.468658 
z"/>
<path fill="#000000" opacity="1.000000" stroke="none" 
	d="
M155.650421,196.000366 
	C155.634399,168.851990 153.885223,174.091110 175.033310,159.781021 
	C188.924255,150.381546 202.931870,141.154480 217.204834,131.638474 
	C214.816330,126.751549 210.732803,123.245926 208.126099,118.657738 
	C204.174561,111.702461 201.220352,104.365974 200.963242,96.647095 
	C200.515747,83.212784 199.477783,69.676796 201.648621,56.278870 
	C205.576080,32.039478 229.496964,11.509001 254.856262,11.471141 
	C272.404602,11.444942 286.952789,17.008215 298.974945,29.695263 
	C307.311890,38.493313 312.309265,49.126286 313.025299,60.869148 
	C313.811035,73.754143 314.216309,86.783691 312.501068,99.739235 
	C311.073334,110.523460 306.091370,119.484535 299.424255,127.739197 
	C298.702484,128.632843 298.007660,129.548218 297.227203,130.547134 
	C298.719879,133.745743 301.827271,134.904388 304.347717,136.607956 
	C320.158142,147.294220 335.978760,157.968704 351.948639,168.413696 
	C356.380737,171.312469 358.185913,175.359787 358.256989,180.140564 
	C358.462646,193.970688 358.294830,207.805984 358.339355,221.639023 
	C358.362885,228.942535 354.110443,233.644348 348.640228,237.436005 
	C331.430603,249.364899 313.081726,257.810608 291.422333,257.448853 
	C267.928955,257.056458 244.424118,257.304596 220.924408,257.350311 
	C197.471893,257.395935 177.916351,247.597382 160.273315,233.212692 
	C156.663467,230.269531 155.677963,225.639236 155.662842,220.999435 
	C155.636261,212.833099 155.652405,204.666641 155.650421,196.000366 
M308.582001,231.125412 
	C316.059540,228.342606 323.480591,225.479828 329.969879,220.638321 
	C332.574036,218.695419 333.847229,216.533707 333.729340,213.120590 
	C333.470947,205.638504 333.463318,198.134674 333.730377,190.653183 
	C333.858063,187.075836 332.699219,184.827957 329.721130,182.865829 
	C311.581085,170.914215 293.531525,158.825058 275.474304,146.748123 
	C273.472290,145.409149 271.577545,144.740723 269.028168,145.301071 
	C261.332489,146.992584 253.570374,146.979233 245.828186,145.393997 
	C243.127457,144.841019 240.681961,145.315521 238.324738,146.894592 
	C220.138046,159.077774 201.927795,171.226074 183.674530,183.309204 
	C181.181335,184.959625 180.221497,186.951035 180.287750,189.939911 
	C180.461044,197.760040 180.586670,205.597092 180.240936,213.405685 
	C180.084244,216.944733 181.545639,219.145432 184.127121,220.809570 
	C195.874039,228.382263 208.411743,233.669098 222.701294,233.662155 
	C243.343185,233.652130 263.985687,233.561188 284.626678,233.698502 
	C292.467621,233.750656 300.211853,233.377167 308.582001,231.125412 
M249.126907,36.496998 
	C236.750946,40.010887 228.379776,47.953629 225.687424,60.430557 
	C223.162079,72.133652 223.406525,84.199913 225.405060,96.049652 
	C227.758728,110.004997 239.070267,120.525841 254.692719,122.366814 
	C265.431763,123.632309 279.637817,117.858559 285.455902,104.534477 
	C292.363373,88.715668 292.039520,71.865097 286.565216,55.958900 
	C281.142883,40.203705 263.794098,31.991516 249.126907,36.496998 
z"/>
<path fill="#000000" opacity="1.000000" stroke="none" 
	d="
M145.222366,432.637756 
	C147.688293,425.270386 151.278610,422.783325 159.747238,422.677612 
	C168.242416,422.571533 176.741318,422.559387 185.235641,422.692963 
	C188.392715,422.742615 189.712418,421.737549 189.696198,418.407837 
	C189.594086,397.417053 190.284103,376.399414 189.436798,355.442230 
	C188.714264,337.570892 182.702682,321.540100 168.977982,308.852753 
	C157.487579,298.230835 147.113129,286.397888 135.575516,275.831696 
	C119.851395,261.431549 105.333977,245.838715 89.938454,231.128052 
	C88.035568,229.309799 85.876434,227.656204 83.587845,226.366867 
	C78.922478,223.738464 74.459732,224.727203 71.190300,228.760910 
	C68.264473,232.370651 68.424347,237.893478 71.763878,241.529526 
	C76.929901,247.154221 82.156174,252.726227 87.459068,258.221985 
	C98.666519,269.837036 109.877693,281.449677 121.203545,292.948883 
	C133.165161,305.093567 137.000687,319.811707 135.249146,336.327667 
	C134.601501,342.434662 128.801285,347.188568 122.785980,346.854614 
	C116.291939,346.494141 111.866753,341.859924 111.659462,335.187286 
	C111.530479,331.035095 111.809921,326.824646 111.207611,322.743408 
	C110.314934,316.694733 106.068008,312.377655 102.066429,308.220642 
	C87.753700,293.352081 73.217026,278.699402 58.830814,263.901154 
	C51.441853,256.300568 45.106297,248.099228 44.671303,236.820740 
	C43.738838,212.643799 64.234901,196.247208 88.076836,202.014420 
	C94.581192,203.587784 100.020157,206.864014 104.696449,211.496246 
	C112.981293,219.703018 120.885147,228.322937 129.508316,236.153397 
	C145.297028,250.490616 159.599121,266.334808 175.259186,280.759796 
	C182.988998,287.879974 190.517990,295.090118 196.715179,303.516998 
	C205.323013,315.221893 210.742004,328.447083 212.253052,342.905548 
	C214.802094,367.296051 212.913177,391.796295 213.224182,416.245392 
	C213.287247,421.202881 214.459534,422.711365 219.608490,422.808472 
	C233.222702,423.065338 242.124390,427.601624 245.640350,439.266418 
	C246.134964,440.907410 246.338196,442.496582 246.338730,444.156586 
	C246.344376,461.649323 246.190125,479.144318 246.444946,496.633362 
	C246.513931,501.368683 244.854904,502.799774 240.395523,502.440674 
	C236.588272,502.134125 232.704239,502.055420 228.913300,502.447540 
	C223.667511,502.990082 222.457764,500.764954 222.557755,495.876038 
	C222.843826,481.887726 222.663834,467.889709 222.647522,453.895508 
	C222.639908,447.367554 222.619400,447.361328 215.883682,447.358917 
	C196.891556,447.352112 177.899124,447.413544 158.907440,447.320496 
	C149.718826,447.275452 144.521591,441.765900 145.222366,432.637756 
z"/>
<path fill="#000000" opacity="1.000000" stroke="none" 
	d="
M320.352234,299.410828 
	C338.961853,280.832611 357.016510,262.196014 375.772888,244.294662 
	C387.334900,233.259659 398.390625,221.719315 410.056061,210.808640 
	C424.097961,197.675308 444.917389,197.017929 458.848755,209.912872 
	C471.751251,221.855545 472.951355,242.799255 461.622498,256.489380 
	C456.090668,263.174194 449.720642,269.017242 443.757965,275.268433 
	C431.713867,287.895294 419.759460,300.607819 407.776733,313.293243 
	C403.923706,317.372192 402.262146,322.281128 402.334686,327.840973 
	C402.365112,330.173309 402.368958,332.506805 402.332489,334.838989 
	C402.219208,342.089844 397.524475,346.969543 390.652191,347.011169 
	C384.403107,347.049011 379.339569,341.875732 378.643860,335.321381 
	C376.737213,317.357910 382.548828,302.572205 395.575287,290.030823 
	C407.557739,278.494629 419.005981,266.386322 430.349274,254.212952 
	C434.195435,250.085312 438.108063,246.009735 441.911255,241.838745 
	C445.830444,237.540543 446.033386,232.181244 442.606873,228.319443 
	C438.984467,224.236847 433.499237,223.752975 428.811798,227.253952 
	C419.555145,234.167587 412.186707,243.071457 403.978882,251.085434 
	C383.251526,271.323273 362.667358,291.707947 342.063354,312.071747 
	C331.800995,322.214447 327.139038,334.887543 325.288483,348.938629 
	C323.495850,362.550354 324.720673,376.192596 324.370270,389.815552 
	C324.180725,397.183136 320.388397,401.796082 313.711334,402.327423 
	C306.850525,402.873383 301.011841,399.047241 300.990967,391.935822 
	C300.922974,368.778259 297.761322,345.268494 306.756195,322.858185 
	C310.106476,314.511108 314.186371,306.554016 320.352234,299.410828 
z"/>
</svg>